<svg xmlns="http://www.w3.org/2000/svg" viewBox="0 0 720 540" role="img" aria-labelledby="title desc">
  <title id="title">Placeholder interface mock-up</title>
  <desc id="desc">Stylised illustration representing a Microsoft Power Platform dashboard layout.</desc>
  <defs>
    <linearGradient id="bg" x1="0" y1="0" x2="1" y2="1">
      <stop offset="0%" stop-color="#A9D9A7" stop-opacity="0.85" />
      <stop offset="100%" stop-color="#E4F2E6" />
    </linearGradient>
  </defs>
  <rect width="720" height="540" rx="48" fill="url(#bg)" />
  <rect x="72" y="76" width="576" height="88" rx="24" fill="#253140" opacity="0.14" />
  <rect x="72" y="188" width="320" height="244" rx="28" fill="#FFFFFF" opacity="0.85" />
  <rect x="408" y="188" width="240" height="28" rx="14" fill="#253140" opacity="0.18" />
  <rect x="408" y="232" width="240" height="18" rx="9" fill="#253140" opacity="0.16" />
  <rect x="408" y="260" width="240" height="18" rx="9" fill="#253140" opacity="0.12" />
  <rect x="408" y="288" width="240" height="18" rx="9" fill="#253140" opacity="0.12" />
  <rect x="408" y="332" width="240" height="96" rx="24" fill="#FFFFFF" opacity="0.7" />
  <circle cx="148" cy="256" r="32" fill="#A9D9A7" opacity="0.8" />
  <rect x="192" y="232" width="160" height="18" rx="9" fill="#253140" opacity="0.2" />
  <rect x="192" y="262" width="132" height="14" rx="7" fill="#253140" opacity="0.15" />
  <rect x="192" y="288" width="180" height="14" rx="7" fill="#253140" opacity="0.15" />
  <rect x="108" y="336" width="228" height="60" rx="16" fill="#A9D9A7" opacity="0.65" />
</svg>
